<svg xmlns="http://www.w3.org/2000/svg" version="1.1" xmlns:xlink="http://www.w3.org/1999/xlink" xmlns:svgjs="http://svgjs.com/svgjs" height="140.75000915527346" width="259.9499816894531"><defs id="SvgjsDefs1275"></defs><g id="SvgjsG1276" rel="mainfill" name="main_text" xmlns:name="main_text" transform="translate(-0.4099999964237213,-109.37999572753904)" fill="#000000"><path d="M23.18 240L19.25 215.87L15.10 240L5.61 240L0.41 208.38L7.89 208.38L11.04 234.34L15.42 208.38L23.27 208.38L27.37 234.34L31.07 208.38L38.19 208.38L32.89 240L23.18 240ZM62.59 227.41Q62.59 228.91 62.46 230.01L47.49 230.01Q47.81 233.07 49.18 234.30Q50.55 235.53 52.97 235.53Q54.43 235.53 55.80 235.00Q57.16 234.48 58.76 233.38L61.73 237.40Q57.48 240.78 52.28 240.78Q46.40 240.78 43.25 237.31Q40.10 233.84 40.10 228.00Q40.10 224.31 41.42 221.36Q42.75 218.42 45.30 216.71Q47.86 215.00 51.42 215.00Q56.66 215.00 59.63 218.28Q62.59 221.57 62.59 227.41M55.52 225.36Q55.43 219.79 51.60 219.79Q49.73 219.79 48.72 221.14Q47.72 222.48 47.45 225.67L55.52 225.67L55.52 225.36ZM89.05 217.19Q86.68 218.15 82.07 218.15Q84.45 219.15 85.54 220.61Q86.64 222.07 86.64 224.40Q86.64 226.72 85.40 228.57Q84.17 230.42 81.87 231.47Q79.56 232.52 76.46 232.52Q75.00 232.52 73.68 232.24Q73.31 232.43 73.11 232.81Q72.90 233.20 72.90 233.61Q72.90 234.30 73.43 234.69Q73.95 235.07 75.55 235.07L79.20 235.07Q81.98 235.07 84.08 235.99Q86.18 236.90 87.32 238.49Q88.46 240.09 88.46 242.10Q88.46 245.89 85.20 248.01Q81.94 250.13 75.78 250.13Q71.35 250.13 68.80 249.19Q66.24 248.26 65.22 246.57Q64.19 244.88 64.19 242.33L70.67 242.33Q70.67 243.42 71.10 244.06Q71.54 244.70 72.68 245.02Q73.82 245.34 75.96 245.34Q78.93 245.34 80.07 244.63Q81.21 243.92 81.21 242.60Q81.21 241.51 80.34 240.87Q79.47 240.23 77.74 240.23L74.23 240.23Q70.49 240.23 68.64 238.88Q66.79 237.54 66.79 235.44Q66.79 234.11 67.57 232.86Q68.34 231.61 69.66 230.78Q67.38 229.55 66.36 227.89Q65.33 226.22 65.33 223.85Q65.33 219.79 68.25 217.39Q71.17 215.00 75.96 215.00Q79.61 215.09 82.14 214.27Q84.67 213.45 87.37 211.85L89.05 217.19M76.14 219.74Q74.46 219.74 73.47 220.82Q72.49 221.89 72.49 223.76Q72.49 225.72 73.47 226.79Q74.46 227.86 76.14 227.86Q77.92 227.86 78.86 226.82Q79.79 225.77 79.79 223.67Q79.79 219.74 76.14 219.74ZM113.01 227.41Q113.01 228.91 112.87 230.01L97.90 230.01Q98.22 233.07 99.59 234.30Q100.96 235.53 103.38 235.53Q104.84 235.53 106.21 235.00Q107.58 234.48 109.17 233.38L112.14 237.40Q107.90 240.78 102.70 240.78Q96.81 240.78 93.66 237.31Q90.51 233.84 90.51 228.00Q90.51 224.31 91.84 221.36Q93.16 218.42 95.72 216.71Q98.27 215.00 101.83 215.00Q107.07 215.00 110.04 218.28Q113.01 221.57 113.01 227.41M105.93 225.36Q105.84 219.79 102.01 219.79Q100.14 219.79 99.14 221.14Q98.13 222.48 97.86 225.67L105.93 225.67L105.93 225.36ZM127.65 215.00Q133.22 215.00 136.36 218.40Q139.51 221.80 139.51 227.91Q139.51 231.79 138.08 234.69Q136.64 237.58 133.97 239.18Q131.30 240.78 127.65 240.78Q122.13 240.78 118.96 237.38Q115.79 233.98 115.79 227.86Q115.79 223.99 117.23 221.09Q118.66 218.19 121.33 216.60Q124.00 215.00 127.65 215.00M127.65 220.29Q125.46 220.29 124.37 222.14Q123.27 223.99 123.27 227.86Q123.27 231.83 124.34 233.66Q125.41 235.48 127.65 235.48Q129.84 235.48 130.94 233.64Q132.03 231.79 132.03 227.91Q132.03 223.94 130.96 222.12Q129.89 220.29 127.65 220.29ZM166.11 217.19Q163.74 218.15 159.13 218.15Q161.50 219.15 162.60 220.61Q163.69 222.07 163.69 224.40Q163.69 226.72 162.46 228.57Q161.23 230.42 158.92 231.47Q156.62 232.52 153.52 232.52Q152.06 232.52 150.74 232.24Q150.37 232.43 150.16 232.81Q149.96 233.20 149.96 233.61Q149.96 234.30 150.48 234.69Q151.01 235.07 152.61 235.07L156.26 235.07Q159.04 235.07 161.14 235.99Q163.24 236.90 164.38 238.49Q165.52 240.09 165.52 242.10Q165.52 245.89 162.25 248.01Q158.99 250.13 152.83 250.13Q148.41 250.13 145.85 249.19Q143.30 248.26 142.27 246.57Q141.25 244.88 141.25 242.33L147.72 242.33Q147.72 243.42 148.16 244.06Q148.59 244.70 149.73 245.02Q150.87 245.34 153.02 245.34Q155.98 245.34 157.12 244.63Q158.26 243.92 158.26 242.60Q158.26 241.51 157.40 240.87Q156.53 240.23 154.80 240.23L151.28 240.23Q147.54 240.23 145.69 238.88Q143.85 237.54 143.85 235.44Q143.85 234.11 144.62 232.86Q145.40 231.61 146.72 230.78Q144.44 229.55 143.41 227.89Q142.39 226.22 142.39 223.85Q142.39 219.79 145.31 217.39Q148.23 215.00 153.02 215.00Q156.67 215.09 159.20 214.27Q161.73 213.45 164.42 211.85L166.11 217.19M153.20 219.74Q151.51 219.74 150.53 220.82Q149.55 221.89 149.55 223.76Q149.55 225.72 150.53 226.79Q151.51 227.86 153.20 227.86Q154.98 227.86 155.91 226.82Q156.85 225.77 156.85 223.67Q156.85 219.74 153.20 219.74ZM182.08 215.09Q183.40 215.09 184.50 215.41L183.35 222.39Q181.99 222.07 181.17 222.07Q179.07 222.07 177.93 223.53Q176.79 224.99 176.15 227.91L176.15 240L168.94 240L168.94 215.77L175.23 215.77L175.83 220.43Q176.65 217.92 178.31 216.50Q179.98 215.09 182.08 215.09ZM206.49 232.97Q206.49 234.34 206.87 234.98Q207.26 235.62 208.13 235.94L206.62 240.64Q204.39 240.46 203.00 239.68Q201.60 238.91 200.78 237.17Q198.41 240.78 193.48 240.78Q189.88 240.78 187.73 238.68Q185.59 236.58 185.59 233.20Q185.59 229.23 188.51 227.13Q191.43 225.04 196.95 225.04L199.41 225.04L199.41 223.99Q199.41 221.84 198.50 221.04Q197.59 220.25 195.31 220.25Q194.12 220.25 192.43 220.59Q190.75 220.93 188.97 221.52L187.32 216.78Q189.61 215.91 192.00 215.46Q194.40 215.00 196.45 215.00Q201.65 215.00 204.07 217.14Q206.49 219.29 206.49 223.58L206.49 232.97M195.58 235.62Q196.77 235.62 197.75 235.03Q198.73 234.43 199.41 233.34L199.41 229.01L197.63 229.01Q195.17 229.01 193.96 229.87Q192.75 230.74 192.75 232.56Q192.75 234.02 193.51 234.82Q194.26 235.62 195.58 235.62ZM225.78 215.00Q230.44 215.00 232.70 218.35Q234.95 221.71 234.95 227.82Q234.95 231.56 233.79 234.50Q232.63 237.45 230.44 239.11Q228.25 240.78 225.33 240.78Q221.68 240.78 219.44 238.22L219.44 249.35L212.23 250.13L212.23 215.77L218.58 215.77L218.94 218.47Q220.35 216.69 222.16 215.84Q223.96 215.00 225.78 215.00M223.14 235.48Q227.47 235.48 227.47 227.91Q227.47 223.62 226.49 221.96Q225.51 220.29 223.50 220.29Q222.36 220.29 221.29 221.04Q220.22 221.80 219.44 223.12L219.44 233.34Q220.90 235.48 223.14 235.48ZM253.66 215.00Q256.81 215.00 258.59 216.92Q260.36 218.83 260.36 222.30L260.36 240L253.16 240L253.16 223.53Q253.16 221.71 252.56 221.00Q251.97 220.29 250.88 220.29Q248.69 220.29 246.68 223.39L246.68 240L239.47 240L239.47 206.15L246.68 205.42L246.68 218.33Q248.18 216.64 249.87 215.82Q251.56 215.00 253.66 215.00Z" fill="#000000" style="fill: rgb(0, 0, 0);"></path></g><g id="SvgjsG1277" rel="mainfill" name="symbol" xmlns:name="symbol_mainfill" transform="translate(82.55498962402342,-6.999999999999993) scale(0.2)" fill="#4348BD"><g fill="#4348BD"><path d="M237.1,440.2c-111.8,0-202.6-90.7-202.6-202.6S125.3,35,237.1,35s202.6,90.7,202.6,202.6   C439.7,349.4,349,440.2,237.1,440.2z M237.1,46.1C131.5,46.1,45.6,132,45.6,237.6s85.9,191.5,191.5,191.5s191.5-85.9,191.5-191.5   S342.7,46.1,237.1,46.1z" fill="#4348BD" style="fill: rgb(67, 72, 189);"></path><g fill="#4348BD"><path d="M269.8,373.4l11-32.6l12.5-10.6l15.8-0.5v22.1L293.3,373L269.8,373.4z M290.4,347l-4.8,14.4h2.4l10.1-13.4v-7.2h-0.5    L290.4,347z" fill="#4348BD" style="fill: rgb(67, 72, 189);"></path><path d="M217,407.5l-36-64.3l5.3-13.4l-18.7-37l1-13.9l-18.2-12.5l-26.4,10.1l-24.5-18.2l-2.9-66.7l40.8-42.2h37.4l24.5,13.4    l2.9-7.7l40.8,7.2l2.4-1l1-1.4l-1.9-2.9l-4.8,0.5l-11.5-2.9l-2.4-13.4l-3.4,2.4l-3.8,9.1l-13.9-2.9l-1.9-8.6l-4.8,5.8h-19.2    l-5.3-6.2l-1.9-6.2l-20.6,11.5h-17.3v-24l18.7-7.7l4.3-6.7l2.4-1.9l-0.5-1l-7.2-4.8l8.2-12.5l6.7-9.6l13.9,4.8l4.3,7.2l1.9-0.5    L179,74.9l27.8-23.5h28.8l3.4,8.2l10.6-0.5l-1,4.3l10.6-5.8h14.9l4.3-2.9l25.9-6.7l2.9,10.6l-24,6.2l-5.8,3.8h-15.4l-18.7,11.5    l-8.2-5.3l0.5-3.8h-4.8l-3.4-8.6h-17.3L192,77.3l2.9,5.8h4.8l1.9,3.4l16.3-8.2l4.8,10.6l-25.4,13h-0.5l0,0l0,0l-6.2-2.9l-12.5,4.8    l-6.7-11.5l-1-1l-1.4,2.4l-1.9,2.9l7.7,12l-9.1,6.7l-4.8,8.2l-15.8,6.2v5.3h3.4l25.9-14.4l5.8,2.9l3.4,12l0.5,0.5h8.6l0.5-1    l1.4-13.4l16.3,7.2l1.9,8.2l0.5-1l8.6-5.8l7.7-23l12.5,3.8l8.6-8.2l23.5,42.2l-24.5-4.8l-7.7,1l-3.8,2.9l0.5,1.4l2.9,1l9.6-1    l9.1,14.4l-5.8,10.6l-9.1,3.8l-35-6.2l-4.3,10.6l-33.1-18.2h-30.2L108,195.8l2.4,56.6l15.4,11.5l26.4-10.1l28.3,19.7l-1.4,17.3    l18.7,37.9l-4.8,13.4l27.4,48.5l26.9-21.1l2.4-18.7l14.4-7.7l4.8-12l-3.8-23.5l9.6-22.1l16.8-12l11.5-20.2l-16.3,0.5l-39.8-67.2    l2.9-8.6h24.5l27.8,45.1l24.5-14.9l0.5-3.8l-9.1-6.2l-7.2,0.5l-16.8-16.8l5.3-10.6l27.8,18.7H347l11,11l7.2,2.4l23.5,53.3l2.4-0.5    l3.4-5.8l-7.7-27.4l13.9-28.8l13.4,7.2l13.9,38.9h7.2l0.5,11l-15.4,0.5l-14.4-41.3l-6.7,13.4L407,252l-8.2,13.4l-15.8,4.8    l-27.8-58.6l-5.3-1.4l-9.6-9.6h-3.8l-1,13.9l-38.4,24l-30.7-49.4h-6.7l31.7,53.8l29.3-0.5l-22.1,39.4l-15.4,11l-6.7,16.3l3.8,23    l-7.2,18.7l-13,6.7l-2.4,17.8L217,407.5z M237.6,121l-4.3,12.5l3.8-3.4l13-1.4l2.4,0.5l-4.8-8.2l-2.9,2.9L237.6,121z M304.3,151.2    l-21.1-5.3l-10.1-17.8l2.9-10.6l8.6-12.5l11.5,7.7l2.9,12.5L304.3,151.2z M285.1,126.7l4.3,7.7l-1.4-6.7l-1.4-5.8l-0.5,1    L285.1,126.7z" fill="#4348BD" style="fill: rgb(67, 72, 189);"></path></g></g><g display="none" fill="#4348BD"><g display="inline" fill="#4348BD"><rect x="0" y="0" fill="" stroke="" stroke-width="1.000000e-02" stroke-miterlimit="10" width="120" height="120"></rect><rect x="120" y="0" fill="" stroke="" stroke-width="1.000000e-02" stroke-miterlimit="10" width="120" height="120"></rect><rect x="240" y="0" fill="" stroke="" stroke-width="1.000000e-02" stroke-miterlimit="10" width="120" height="120"></rect><rect x="360" y="0" fill="" stroke="" stroke-width="1.000000e-02" stroke-miterlimit="10" width="120" height="120"></rect><rect x="0" y="120" fill="" stroke="" stroke-width="1.000000e-02" stroke-miterlimit="10" width="120" height="120"></rect><rect x="120" y="120" fill="" stroke="" stroke-width="1.000000e-02" stroke-miterlimit="10" width="120" height="120"></rect><rect x="240" y="120" fill="" stroke="" stroke-width="1.000000e-02" stroke-miterlimit="10" width="120" height="120"></rect><rect x="360" y="120" fill="" stroke="" stroke-width="1.000000e-02" stroke-miterlimit="10" width="120" height="120"></rect><rect x="0" y="240" fill="" stroke="" stroke-width="1.000000e-02" stroke-miterlimit="10" width="120" height="120"></rect><rect x="120" y="240" fill="" stroke="" stroke-width="1.000000e-02" stroke-miterlimit="10" width="120" height="120"></rect><rect x="240" y="240" fill="" stroke="" stroke-width="1.000000e-02" stroke-miterlimit="10" width="120" height="120"></rect><rect x="360" y="240" fill="" stroke="" stroke-width="1.000000e-02" stroke-miterlimit="10" width="120" height="120"></rect><rect x="0" y="360" fill="" stroke="" stroke-width="1.000000e-02" stroke-miterlimit="10" width="120" height="120"></rect><rect x="120" y="360" fill="" stroke="" stroke-width="1.000000e-02" stroke-miterlimit="10" width="120" height="120"></rect><rect x="240" y="360" fill="" stroke="" stroke-width="1.000000e-02" stroke-miterlimit="10" width="120" height="120"></rect><rect x="360" y="360" fill="" stroke="" stroke-width="1.000000e-02" stroke-miterlimit="10" width="120" height="120"></rect></g></g></g></svg>
